<?xml version="1.0" standalone="no"?><!DOCTYPE svg PUBLIC "-//W3C//DTD SVG 1.1//EN" "http://www.w3.org/Graphics/SVG/1.1/DTD/svg11.dtd"><svg t="1747660208334" class="icon" viewBox="0 0 1024 1024" version="1.1" xmlns="http://www.w3.org/2000/svg" p-id="2852" xmlns:xlink="http://www.w3.org/1999/xlink" width="32" height="32"><path d="M379.023918 607.940073c6.484691 0 11.821233 5.265934 11.821233 11.818163 0 6.484691-5.336542 11.750625-11.821233 11.750625-15.264659 0-81.854263 0-93.580329 0-27.544333 0-44.099381 0-44.099381 0l0-23.568788 44.099381 0L379.023918 607.940073M264.842389 631.508861l-23.497157-0.689708c-98.410334-7.013741-176.080298-88.568175-176.080298-188.333366 0-104.366999 84.981487-189.026144 189.82944-189.026144 5.655813 0 11.31265 0.415462 16.83134 0.873903 38.856983-110.6194 144.302547-190.081173 268.694625-190.081173 152.673192 0 276.925077 119.770827 284.099477 270.051529 75.647911 5.978155 135.245264 70.0361 135.245264 148.32721 0 78.337159-59.689451 142.394081-135.428436 148.305721l-23.545252 0 0-21.823028 21.704324-1.654686c63.782675-4.967128 113.77016-59.826574 113.77016-124.826983 0-65.001433-49.941436-119.81483-113.583918-124.852566l-20.693298-1.630127-1.014096-20.717857c-6.621814-138.831952-121.078613-247.656473-260.554224-247.656473-110.827131 0-209.833029 70.081125-246.484787 174.332491l-6.02318 17.268292-18.210757-1.587148c-4.920056-0.390903-9.840112-0.735757-14.807241-0.735757-91.695399 0-166.285211 74.221422-166.285211 165.435866 0 86.244246 67.690682 158.673859 154.190755 164.880211l21.842471 2.207271L264.842389 631.508861M824.536644 607.940073l0 23.568788c0 0-116.434849 0-164.306136 0-6.484691 0-11.726066-5.265934-11.726066-11.750625 0-6.551206 5.241374-11.818163 11.726066-11.818163L824.536644 607.940073M264.842389 631.508861l-23.497157 0 0 0L264.842389 631.508861 264.842389 631.508861 264.842389 631.508861zM241.344209 631.508861l0-23.568788L241.344209 631.508861 241.344209 631.508861 241.344209 631.508861zM824.536644 631.508861l0-23.568788L824.536644 631.508861 824.536644 631.508861 824.536644 631.508861zM824.536644 631.508861l-23.545252-0.574075L824.536644 631.508861 824.536644 631.508861 824.536644 631.508861z" p-id="2853"></path><path d="M704.053596 749.645468c4.64581-4.573155 12.141528-4.459568 16.60212 0.187265 4.597715 4.668323 4.505617 12.092409-0.137123 16.668635L524.017196 958.744787l-16.461927-16.785292L704.053596 749.645468M540.482193 941.959495l-16.464997 16.785292L327.520917 766.500345c-4.599761-4.576225-4.690836-12.001335-0.184195-16.668635 4.553713-4.646833 12.002358-4.759397 16.693194-0.187265L540.482193 941.959495M524.017196 958.744787l16.464997-16.785292L524.017196 958.744787 524.017196 958.744787 524.017196 958.744787zM524.017196 958.744787l-16.461927-16.785292L524.017196 958.744787 524.017196 958.744787 524.017196 958.744787z" p-id="2854"></path><path d="M512.935814 471.158826c0-6.509251 5.242398-11.772115 11.772115-11.772115 6.484691 0 11.819187 5.263887 11.819187 11.772115l0 444.269409c0 6.55223-5.334495 11.819187-11.819187 11.819187-6.529717 0-11.772115-5.265934-11.772115-11.819187L512.935814 471.158826" p-id="2855"></path></svg>